HIERARCHY
ROOT Hips
{
	OFFSET 0.000000 0.000000 0.000000 
	CHANNELS 6 Xposition Yposition Zposition Zrotation Yrotation Xrotation
	JOINT Chest
	{
		OFFSET 0.000000 1.099998 0.000000 
		CHANNELS 3 Zrotation Yrotation Xrotation
		JOINT Chest2
		{
			OFFSET 0.000000 1.399994 0.000000 
			CHANNELS 3 Zrotation Yrotation Xrotation
			JOINT Neck
			{
				OFFSET 0.000000 0.699997 0.000000 
				CHANNELS 3 Zrotation Yrotation Xrotation
				JOINT Head
				{
					OFFSET -0.000000 0.637970 -0.262853 
					CHANNELS 3 Zrotation Yrotation Xrotation
					End Site
					{
						OFFSET 0.000000 0.728172 1.465234 
					}
				}
			}
			JOINT LeftCollar
			{
				OFFSET -0.000000 0.199997 -0.180000 
				CHANNELS 3 Zrotation Yrotation Xrotation
				JOINT LeftShoulder
				{
					OFFSET 1.099999 -0.001328 -0.000000 
					CHANNELS 3 Zrotation Yrotation Xrotation
					JOINT LeftElbow
					{
						OFFSET 1.499819 -0.002594 -0.023143 
						CHANNELS 3 Zrotation Yrotation Xrotation
						JOINT LeftWrist
						{
							OFFSET 1.499819 -0.002594 0.023143 
							CHANNELS 3 Zrotation Yrotation Xrotation
							End Site
							{
								OFFSET 0.999879 -0.001732 0.015429 
							}
						}
					}
				}
			}
			JOINT RightCollar
			{
				OFFSET -0.000000 0.199997 -0.180000 
				CHANNELS 3 Zrotation Yrotation Xrotation
				JOINT RightShoulder
				{
					OFFSET -1.099999 -0.001328 0.000000 
					CHANNELS 3 Zrotation Yrotation Xrotation
					JOINT RightElbow
					{
						OFFSET -1.499819 -0.002594 -0.023143 
						CHANNELS 3 Zrotation Yrotation Xrotation
						JOINT RightWrist
						{
							OFFSET -1.499819 -0.002594 0.023143 
							CHANNELS 3 Zrotation Yrotation Xrotation
							End Site
							{
								OFFSET -0.999879 -0.001732 0.015429 
							}
						}
					}
				}
			}
		}
	}
	JOINT LeftHip
	{
		OFFSET 0.630197 -0.009087 -0.020000 
		CHANNELS 3 Zrotation Yrotation Xrotation
		JOINT LeftKnee
		{
			OFFSET 0.176607 -2.192711 0.029023 
			CHANNELS 3 Zrotation Yrotation Xrotation
			JOINT LeftAnkle
			{
				OFFSET 0.176607 -2.192711 -0.029023 
				CHANNELS 3 Zrotation Yrotation Xrotation
				End Site
				{
					OFFSET 0.000000 0.000000 1.000000 
				}
			}
		}
	}
	JOINT RightHip
	{
		OFFSET -0.630197 -0.009087 -0.020000 
		CHANNELS 3 Zrotation Yrotation Xrotation
		JOINT RightKnee
		{
			OFFSET -0.176607 -2.192711 0.029023 
			CHANNELS 3 Zrotation Yrotation Xrotation
			JOINT RightAnkle
			{
				OFFSET -0.176607 -2.192711 -0.029023 
				CHANNELS 3 Zrotation Yrotation Xrotation
				End Site
				{
					OFFSET 0.000000 0.000000 1.000000 
				}
			}
		}
	}
}
MOTION
Frames: 11
Frame Time: 0.016667
-1.152498 6.125897 -0.380356 2.201555 4.645239 -3.142128 -2.988026 -5.696689 2.942130 -1.458600 0.946468 -7.476160 0.848452 2.162307 17.256483 -0.285221 0.692222 -12.788374 -8.302278 0.407202 0.164789 -73.066460 16.729959 -5.545975 -4.797023 -13.965930 -0.024672 -0.699614 0.204238 38.445599 8.697845 -0.685812 -0.171122 84.266563 -4.953817 4.224598 3.896305 15.506660 -0.027525 4.093691 10.473530 67.976089 -1.457805 0.004446 -0.383993 0.199134 1.340891 16.894970 7.972718 15.614170 -10.148320 2.272143 -0.130211 0.340477 -0.138968 -1.123913 14.097830 -8.788047 -3.901001 -10.448030 
-1.147748 6.123747 -0.383197 2.322098 4.442430 -3.127620 -3.153815 -5.609473 2.928938 -1.456479 0.932943 -7.474071 0.860234 2.220439 17.262064 -0.289070 0.701563 -12.787285 -8.307009 0.408814 0.162886 -73.106140 16.631041 -5.498108 -4.797028 -13.958100 -0.024660 -0.823160 0.193869 38.513222 8.695349 -0.692318 -0.168972 84.210312 -5.261022 4.150932 3.896155 15.807330 -0.028086 4.428404 10.326510 68.148117 -1.642771 0.020479 -0.242006 0.198151 1.337645 16.852831 8.006413 15.504940 -10.262460 2.070566 -0.123334 0.311138 -0.138950 -1.123847 14.096980 -8.784017 -4.019090 -10.477050 
-1.138547 6.120268 -0.388406 2.546455 4.042896 -3.105204 -3.469039 -5.421006 2.899255 -1.452534 0.903652 -7.473314 0.885942 2.345157 17.280985 -0.297311 0.721563 -12.783518 -8.317194 0.414608 0.158770 -73.173920 16.432289 -5.401094 -4.797039 -13.936620 -0.024621 -1.072239 0.232310 38.668980 8.691895 -0.702368 -0.164392 84.107964 -5.778376 3.982689 3.895940 16.226240 -0.028871 5.094181 10.107540 68.490723 -1.995841 0.051246 0.028147 0.195229 1.327968 16.727249 8.081602 15.313100 -10.432260 1.689771 -0.110434 0.255621 -0.138901 -1.123644 14.094380 -8.779814 -4.208683 -10.520320 
-1.131070 6.119147 -0.391743 2.700763 3.715904 -3.113264 -3.711490 -5.232172 2.883812 -1.449348 0.874170 -7.479179 0.914064 2.474117 17.318792 -0.305914 0.742439 -12.775773 -8.327130 0.423763 0.154654 -73.206421 16.254030 -5.311206 -4.797049 -13.908590 -0.024566 -1.281772 0.436428 38.864880 8.692553 -0.704850 -0.159909 84.044991 -6.014003 3.771511 3.895954 16.198450 -0.028818 5.688930 10.081510 68.800247 -2.256044 0.072411 0.207442 0.192656 1.319374 16.615820 8.139558 15.199730 -10.497380 1.414734 -0.102035 0.224358 -0.138838 -1.123394 14.091180 -8.782766 -4.271830 -10.514430 
-1.122465 6.118675 -0.393931 2.838853 3.408061 -3.187398 -3.985107 -5.049703 2.928984 -1.444777 0.845674 -7.479955 0.947217 2.614391 17.382875 -0.315565 0.765858 -12.762203 -8.333734 0.428326 0.150562 -73.219902 16.057409 -5.202593 -4.797054 -13.896470 -0.024546 -1.444875 0.828172 39.140121 8.695909 -0.705548 -0.155579 83.997078 -6.073570 3.463723 3.896132 15.853490 -0.028173 6.407237 10.197760 69.180313 -2.503378 0.088499 0.319230 0.196091 1.330829 16.764370 8.128706 15.085760 -10.691700 1.164595 -0.096691 0.220159 -0.138813 -1.123288 14.089830 -8.785776 -4.319060 -10.462010 
-1.113849 6.118205 -0.394099 2.960579 3.127373 -3.272488 -4.251867 -4.839306 2.986059 -1.441070 0.812981 -7.475888 0.971936 2.725803 17.445751 -0.322366 0.782363 -12.748697 -8.338980 0.442395 0.145850 -73.229218 15.907600 -5.119873 -4.797059 -13.886640 -0.024527 -1.587750 1.178183 39.441120 8.700518 -0.698854 -0.150636 83.960297 -6.047040 3.158707 3.896368 15.381550 -0.027292 6.991978 10.385390 69.538208 -2.748174 0.107510 0.465870 0.197275 1.334756 16.815331 8.116476 15.064360 -10.821620 0.935007 -0.094252 0.243362 -0.138706 -1.122867 14.084430 -8.792665 -4.316563 -10.425150 
-1.104516 6.115960 -0.391588 3.068210 2.857292 -3.389695 -4.519757 -4.591086 3.065756 -1.437333 0.774307 -7.476370 0.998589 2.843612 17.531385 -0.329215 0.798981 -12.730276 -8.344360 0.472984 0.140298 -73.199081 15.826810 -5.075274 -4.797069 -13.860090 -0.024478 -1.800616 1.645682 39.732140 8.707025 -0.692231 -0.144834 83.932747 -5.945202 2.756275 3.896705 14.675210 -0.025981 7.484632 10.729650 69.925468 -3.024851 0.129645 0.636093 0.198304 1.338154 16.859421 8.090826 15.110580 -11.054620 0.709456 -0.095865 0.310616 -0.138571 -1.122334 14.077610 -8.787591 -4.270420 -10.425160 
-1.093920 6.112411 -0.388115 3.174352 2.598248 -3.544057 -4.792873 -4.343462 3.175202 -1.431650 0.735564 -7.478640 1.032221 2.979640 17.644274 -0.337611 0.819354 -12.706066 -8.345751 0.504549 0.134639 -73.141190 15.760210 -5.030373 -4.797071 -13.847170 -0.024456 -1.983899 2.199473 40.038010 8.715042 -0.683353 -0.139003 83.873619 -6.046263 2.293737 3.896828 14.407390 -0.025486 8.014897 10.819460 70.256287 -3.332576 0.151647 0.784579 0.202741 1.352704 17.048380 8.027939 15.183570 -11.492810 0.466581 -0.098905 0.398237 -0.138503 -1.122057 14.074050 -8.765833 -4.214497 -10.420290 
-1.084210 6.110168 -0.384716 3.272201 2.386514 -3.668148 -5.008413 -4.103456 3.265095 -1.423243 0.698078 -7.472597 1.051006 3.061198 17.744604 -0.341355 0.828438 -12.684363 -8.339280 0.521941 0.128941 -73.087891 15.635290 -4.936882 -4.797059 -13.889800 -0.024533 -1.882845 2.417905 40.538651 8.721701 -0.653032 -0.133278 83.786308 -6.094050 2.015538 3.896851 14.356970 -0.025393 8.422112 10.683840 70.308418 -3.607121 0.174248 0.950249 0.204649 1.358907 17.129000 7.967746 15.389920 -11.877040 0.217823 -0.100360 0.470564 -0.138461 -1.121893 14.071950 -8.756018 -4.111450 -10.391160 
-1.074803 6.107948 -0.378601 3.368423 2.150280 -3.802975 -5.220500 -3.776381 3.349397 -1.408761 0.646671 -7.474136 1.061221 3.111639 17.892252 -0.341158 0.827960 -12.652188 -8.332223 0.519722 0.121107 -72.873337 15.242940 -4.661764 -4.797039 -13.939910 -0.024626 -1.538198 2.630752 41.802391 8.727105 -0.616436 -0.125329 83.699402 -6.192787 1.706236 3.896870 14.313470 -0.025313 8.847093 10.561320 70.181168 -3.878983 0.199983 1.143147 0.207897 1.369403 17.265490 7.870053 15.698560 -12.412240 -0.067660 -0.104001 0.577219 -0.138354 -1.121462 14.066440 -8.795384 -3.972939 -10.375150 
-1.065304 6.106898 -0.374680 3.464648 2.032150 -3.870388 -5.391233 -3.570353 3.375222 -1.415103 0.614962 -7.475561 1.064556 3.116878 18.031042 -0.338979 0.822674 -12.621718 -8.329877 0.485954 0.116565 -72.636642 14.763870 -4.344200 -4.797022 -13.968480 -0.024677 -1.174783 2.876651 42.953972 8.732274 -0.599362 -0.120742 83.605087 -6.276758 1.439450 3.896888 14.273480 -0.025239 9.220137 10.442720 69.986877 -4.127320 0.218187 1.263198 0.209101 1.373271 17.315821 7.805420 15.885010 -12.692070 -0.327793 -0.104239 0.640348 -0.138518 -1.122115 14.074810 -8.820509 -3.952398 -10.384680 
